<svg width="209" height="416" viewBox="0 0 209 416" fill="none" xmlns="http://www.w3.org/2000/svg">
<path d="M209 208L0.500005 415.846L0.5 0.15387L209 208Z" fill="black"/>
<path d="M102.89 256.49L84.19 200.05L74.16 196.65C81.13 196.31 87.59 193.59 92.69 188.83C99.32 183.05 102.89 174.72 102.89 165.88C102.89 157.04 99.32 148.71 92.69 142.93C87.25 137.83 80.11 135.11 72.63 134.94H37.95V135.62H41.69V256.49H37.95V257H56.14V256.49H52.4L52.57 217.05C52.57 206 61.41 196.99 72.46 196.82L92.18 256.49H88.44V257H106.8V256.49H102.89ZM72.63 196.31C62.6 196.31 54.27 203.45 52.4 213.14V135.62H72.63C77.39 135.62 81.98 137.49 85.55 140.72C89.8 144.46 92.18 149.73 92.35 155.34V176.42C92.18 182.03 89.8 187.3 85.55 191.04C81.98 194.27 77.39 196.31 72.63 196.31Z" fill="white"/>
</svg>
